<mxfile host="app.diagrams.net" modified="2023-10-09T02:37:37.982Z" agent="Mozilla/5.0 (Macintosh; Intel Mac OS X 10_15_7) AppleWebKit/537.36 (KHTML, like Gecko) Chrome/117.0.0.0 Safari/537.36" etag="FgU0Xwvecutk_Ax3YaRT" version="22.0.4" type="github">
  <diagram id="C5RBs43oDa-KdzZeNtuy" name="Page-1">
    <mxGraphModel dx="1853" dy="1823" grid="1" gridSize="10" guides="1" tooltips="1" connect="1" arrows="1" fold="1" page="1" pageScale="1" pageWidth="827" pageHeight="1169" math="0" shadow="0">
      <root>
        <mxCell id="WIyWlLk6GJQsqaUBKTNV-0" />
        <mxCell id="WIyWlLk6GJQsqaUBKTNV-1" parent="WIyWlLk6GJQsqaUBKTNV-0" />
        <mxCell id="OiVMoReA73HyPevBSJjf-4" style="edgeStyle=orthogonalEdgeStyle;rounded=0;orthogonalLoop=1;jettySize=auto;html=1;exitX=0.5;exitY=1;exitDx=0;exitDy=0;entryX=0.5;entryY=0;entryDx=0;entryDy=0;" edge="1" parent="WIyWlLk6GJQsqaUBKTNV-1" source="WIyWlLk6GJQsqaUBKTNV-3" target="OiVMoReA73HyPevBSJjf-3">
          <mxGeometry relative="1" as="geometry" />
        </mxCell>
        <mxCell id="WIyWlLk6GJQsqaUBKTNV-3" value="定时任务捞数据" style="rounded=1;whiteSpace=wrap;html=1;fontSize=12;glass=0;strokeWidth=1;shadow=0;" parent="WIyWlLk6GJQsqaUBKTNV-1" vertex="1">
          <mxGeometry x="160" y="-100" width="120" height="40" as="geometry" />
        </mxCell>
        <mxCell id="OiVMoReA73HyPevBSJjf-0" value="" style="rounded=1;whiteSpace=wrap;html=1;" vertex="1" parent="WIyWlLk6GJQsqaUBKTNV-1">
          <mxGeometry x="-215" y="115" width="1205" height="975" as="geometry" />
        </mxCell>
        <mxCell id="OiVMoReA73HyPevBSJjf-5" style="edgeStyle=orthogonalEdgeStyle;rounded=0;orthogonalLoop=1;jettySize=auto;html=1;exitX=0.5;exitY=1;exitDx=0;exitDy=0;entryX=0.5;entryY=0;entryDx=0;entryDy=0;" edge="1" parent="WIyWlLk6GJQsqaUBKTNV-1" source="OiVMoReA73HyPevBSJjf-3" target="OiVMoReA73HyPevBSJjf-0">
          <mxGeometry relative="1" as="geometry" />
        </mxCell>
        <mxCell id="OiVMoReA73HyPevBSJjf-3" value="存在可执行任务" style="rhombus;whiteSpace=wrap;html=1;" vertex="1" parent="WIyWlLk6GJQsqaUBKTNV-1">
          <mxGeometry x="145" y="-30" width="150" height="80" as="geometry" />
        </mxCell>
        <mxCell id="OiVMoReA73HyPevBSJjf-6" value="执行任务" style="text;html=1;strokeColor=none;fillColor=none;align=center;verticalAlign=middle;whiteSpace=wrap;rounded=0;" vertex="1" parent="WIyWlLk6GJQsqaUBKTNV-1">
          <mxGeometry x="-60" y="85" width="60" height="30" as="geometry" />
        </mxCell>
        <mxCell id="OiVMoReA73HyPevBSJjf-8" value="创建ArrayBlockingQueue" style="rounded=1;whiteSpace=wrap;html=1;" vertex="1" parent="WIyWlLk6GJQsqaUBKTNV-1">
          <mxGeometry x="-115" y="180" width="175" height="40" as="geometry" />
        </mxCell>
        <mxCell id="OiVMoReA73HyPevBSJjf-9" value="创建HotelDataHandlerFactory" style="rounded=1;whiteSpace=wrap;html=1;" vertex="1" parent="WIyWlLk6GJQsqaUBKTNV-1">
          <mxGeometry x="-115" y="250" width="170" height="40" as="geometry" />
        </mxCell>
        <mxCell id="OiVMoReA73HyPevBSJjf-10" value="创建初始化线程池" style="rounded=1;whiteSpace=wrap;html=1;" vertex="1" parent="WIyWlLk6GJQsqaUBKTNV-1">
          <mxGeometry x="-117.5" y="320" width="175" height="40" as="geometry" />
        </mxCell>
        <mxCell id="OiVMoReA73HyPevBSJjf-11" style="edgeStyle=orthogonalEdgeStyle;rounded=0;orthogonalLoop=1;jettySize=auto;html=1;exitX=0.5;exitY=1;exitDx=0;exitDy=0;" edge="1" parent="WIyWlLk6GJQsqaUBKTNV-1" source="OiVMoReA73HyPevBSJjf-9" target="OiVMoReA73HyPevBSJjf-9">
          <mxGeometry relative="1" as="geometry" />
        </mxCell>
        <mxCell id="OiVMoReA73HyPevBSJjf-12" value="网关获取代理国家类型" style="rounded=1;whiteSpace=wrap;html=1;" vertex="1" parent="WIyWlLk6GJQsqaUBKTNV-1">
          <mxGeometry x="-117" y="390" width="177" height="40" as="geometry" />
        </mxCell>
        <mxCell id="OiVMoReA73HyPevBSJjf-13" value="通过国家类型以及搜索模式获取接口枚举" style="rounded=1;whiteSpace=wrap;html=1;" vertex="1" parent="WIyWlLk6GJQsqaUBKTNV-1">
          <mxGeometry x="-115" y="460" width="175" height="50" as="geometry" />
        </mxCell>
        <mxCell id="OiVMoReA73HyPevBSJjf-14" value="策略工厂获取对应的执行策略" style="rounded=1;whiteSpace=wrap;html=1;" vertex="1" parent="WIyWlLk6GJQsqaUBKTNV-1">
          <mxGeometry x="-115" y="540" width="175" height="50" as="geometry" />
        </mxCell>
        <mxCell id="OiVMoReA73HyPevBSJjf-18" style="edgeStyle=orthogonalEdgeStyle;rounded=0;orthogonalLoop=1;jettySize=auto;html=1;exitX=1;exitY=0.5;exitDx=0;exitDy=0;entryX=0;entryY=0.5;entryDx=0;entryDy=0;" edge="1" parent="WIyWlLk6GJQsqaUBKTNV-1" source="OiVMoReA73HyPevBSJjf-15" target="OiVMoReA73HyPevBSJjf-17">
          <mxGeometry relative="1" as="geometry" />
        </mxCell>
        <mxCell id="OiVMoReA73HyPevBSJjf-15" value="根据入参/默认最大线程数执行任务" style="rounded=1;whiteSpace=wrap;html=1;" vertex="1" parent="WIyWlLk6GJQsqaUBKTNV-1">
          <mxGeometry x="168.5" y="175" width="175" height="50" as="geometry" />
        </mxCell>
        <mxCell id="OiVMoReA73HyPevBSJjf-16" value="创建ScheduledThreadPoolExecutor作为监控线程，监控任务进度" style="rounded=1;whiteSpace=wrap;html=1;" vertex="1" parent="WIyWlLk6GJQsqaUBKTNV-1">
          <mxGeometry x="166.5" y="290" width="177" height="60" as="geometry" />
        </mxCell>
        <mxCell id="OiVMoReA73HyPevBSJjf-17" value="" style="rounded=1;whiteSpace=wrap;html=1;" vertex="1" parent="WIyWlLk6GJQsqaUBKTNV-1">
          <mxGeometry x="460" y="-50" width="400" height="680" as="geometry" />
        </mxCell>
        <mxCell id="OiVMoReA73HyPevBSJjf-21" value="" style="edgeStyle=orthogonalEdgeStyle;rounded=0;orthogonalLoop=1;jettySize=auto;html=1;" edge="1" parent="WIyWlLk6GJQsqaUBKTNV-1" source="OiVMoReA73HyPevBSJjf-19" target="OiVMoReA73HyPevBSJjf-20">
          <mxGeometry relative="1" as="geometry" />
        </mxCell>
        <mxCell id="OiVMoReA73HyPevBSJjf-19" value="处理城市和酒店信息" style="rounded=1;whiteSpace=wrap;html=1;" vertex="1" parent="WIyWlLk6GJQsqaUBKTNV-1">
          <mxGeometry x="-115" y="690" width="177" height="50" as="geometry" />
        </mxCell>
        <mxCell id="OiVMoReA73HyPevBSJjf-20" value="" style="whiteSpace=wrap;html=1;rounded=1;" vertex="1" parent="WIyWlLk6GJQsqaUBKTNV-1">
          <mxGeometry x="180" y="432.5" width="211.5" height="565" as="geometry" />
        </mxCell>
        <mxCell id="OiVMoReA73HyPevBSJjf-25" value="" style="edgeStyle=orthogonalEdgeStyle;rounded=0;orthogonalLoop=1;jettySize=auto;html=1;" edge="1" parent="WIyWlLk6GJQsqaUBKTNV-1" source="OiVMoReA73HyPevBSJjf-23" target="OiVMoReA73HyPevBSJjf-24">
          <mxGeometry relative="1" as="geometry" />
        </mxCell>
        <mxCell id="OiVMoReA73HyPevBSJjf-23" value="获取城市总数" style="rounded=1;whiteSpace=wrap;html=1;" vertex="1" parent="WIyWlLk6GJQsqaUBKTNV-1">
          <mxGeometry x="221.5" y="457.5" width="120" height="60" as="geometry" />
        </mxCell>
        <mxCell id="OiVMoReA73HyPevBSJjf-27" value="" style="edgeStyle=orthogonalEdgeStyle;rounded=0;orthogonalLoop=1;jettySize=auto;html=1;" edge="1" parent="WIyWlLk6GJQsqaUBKTNV-1" source="OiVMoReA73HyPevBSJjf-24" target="OiVMoReA73HyPevBSJjf-26">
          <mxGeometry relative="1" as="geometry" />
        </mxCell>
        <mxCell id="OiVMoReA73HyPevBSJjf-24" value="分页获取所有城市" style="whiteSpace=wrap;html=1;rounded=1;" vertex="1" parent="WIyWlLk6GJQsqaUBKTNV-1">
          <mxGeometry x="221.5" y="547.5" width="120" height="60" as="geometry" />
        </mxCell>
        <mxCell id="OiVMoReA73HyPevBSJjf-30" value="" style="edgeStyle=orthogonalEdgeStyle;rounded=0;orthogonalLoop=1;jettySize=auto;html=1;" edge="1" parent="WIyWlLk6GJQsqaUBKTNV-1" source="OiVMoReA73HyPevBSJjf-26" target="OiVMoReA73HyPevBSJjf-29">
          <mxGeometry relative="1" as="geometry" />
        </mxCell>
        <mxCell id="OiVMoReA73HyPevBSJjf-26" value="数据库写入城市、任务id等数据" style="whiteSpace=wrap;html=1;rounded=1;" vertex="1" parent="WIyWlLk6GJQsqaUBKTNV-1">
          <mxGeometry x="221.5" y="635" width="120" height="60" as="geometry" />
        </mxCell>
        <mxCell id="OiVMoReA73HyPevBSJjf-32" value="" style="edgeStyle=orthogonalEdgeStyle;rounded=0;orthogonalLoop=1;jettySize=auto;html=1;" edge="1" parent="WIyWlLk6GJQsqaUBKTNV-1" source="OiVMoReA73HyPevBSJjf-29" target="OiVMoReA73HyPevBSJjf-31">
          <mxGeometry relative="1" as="geometry" />
        </mxCell>
        <mxCell id="OiVMoReA73HyPevBSJjf-29" value="分页获取所有酒店数据并利用factory将数据push进ArrayBlockingQueue" style="whiteSpace=wrap;html=1;rounded=1;" vertex="1" parent="WIyWlLk6GJQsqaUBKTNV-1">
          <mxGeometry x="221.5" y="727.5" width="120" height="60" as="geometry" />
        </mxCell>
        <mxCell id="OiVMoReA73HyPevBSJjf-34" value="" style="edgeStyle=orthogonalEdgeStyle;rounded=0;orthogonalLoop=1;jettySize=auto;html=1;" edge="1" parent="WIyWlLk6GJQsqaUBKTNV-1" source="OiVMoReA73HyPevBSJjf-31" target="OiVMoReA73HyPevBSJjf-33">
          <mxGeometry relative="1" as="geometry" />
        </mxCell>
        <mxCell id="OiVMoReA73HyPevBSJjf-31" value="更新factory中的MonitorData数据" style="whiteSpace=wrap;html=1;rounded=1;" vertex="1" parent="WIyWlLk6GJQsqaUBKTNV-1">
          <mxGeometry x="221.5" y="816.5" width="120" height="60" as="geometry" />
        </mxCell>
        <mxCell id="OiVMoReA73HyPevBSJjf-33" value="置factory中finished&lt;span style=&quot;background-color: initial;&quot;&gt;标识为true&lt;/span&gt;" style="whiteSpace=wrap;html=1;rounded=1;" vertex="1" parent="WIyWlLk6GJQsqaUBKTNV-1">
          <mxGeometry x="221.5" y="907.5" width="120" height="60" as="geometry" />
        </mxCell>
        <mxCell id="OiVMoReA73HyPevBSJjf-38" value="factory.taskFinished" style="rhombus;whiteSpace=wrap;html=1;" vertex="1" parent="WIyWlLk6GJQsqaUBKTNV-1">
          <mxGeometry x="490" y="-20" width="150" height="60" as="geometry" />
        </mxCell>
      </root>
    </mxGraphModel>
  </diagram>
</mxfile>
